{
  "accessors": [
    {
      "bufferView": 2,
      "componentType": 5126,
      "count": 32914,
      "max": [
        3.0806941986083984,
        2.2098720073699951,
        0.83326101303100586
      ],
      "min": [
        -1.2419281005859375,
        -2.6491713523864746,
        -6.8565583229064941
      ],
      "type": "VEC3"
    },
    {
      "bufferView": 2,
      "byteOffset": 394968,
      "componentType": 5126,
      "count": 32914,
      "max": [
        1,
        0.99999773502349854,
        0.99999403953552246
      ],
      "min": [
        -1,
        -0.99999785423278809,
        -0.99999868869781494
      ],
      "type": "VEC3"
    },
    {
      "bufferView": 1,
      "componentType": 5126,
      "count": 32914,
      "max": [
        0.99762344360351562,
        0.99867701530456543
      ],
      "min": [
        0.0024802088737487793,
        0.001927841454744339
      ],
      "type": "VEC2"
    },
    {
      "bufferView": 0,
      "componentType": 5125,
      "count": 175053,
      "max": [
        32913
      ],
      "min": [
        0
      ],
      "type": "SCALAR"
    }
  ],
  "asset": {
    "extras": {
      "author": "magiccc (https://sketchfab.com/magiccc)",
      "license": "CC-BY-4.0 (http://creativecommons.org/licenses/by/4.0/)",
      "source": "https://sketchfab.com/3d-models/motivational-croc-7192d859dc5b47d689f1090feb7624f1",
      "title": "Motivational Croc"
    },
    "generator": "Sketchfab-9.37.0",
    "version": "2.0"
  },
  "bufferViews": [
    {
      "buffer": 0,
      "byteLength": 700212,
      "byteOffset": 0,
      "name": "floatBufferViews",
      "target": 34963
    },
    {
      "buffer": 0,
      "byteLength": 263312,
      "byteOffset": 700212,
      "byteStride": 8,
      "name": "floatBufferViews",
      "target": 34962
    },
    {
      "buffer": 0,
      "byteLength": 789936,
      "byteOffset": 963524,
      "byteStride": 12,
      "name": "floatBufferViews",
      "target": 34962
    }
  ],
  "buffers": [
    {
      "byteLength": 1753460,
      "uri": "scene.bin"
    }
  ],
  "extensionsUsed": [
    "KHR_materials_unlit"
  ],
  "images": [
    {
      "uri": "textures/Material_baseColor.png"
    }
  ],
  "materials": [
    {
      "doubleSided": false,
      "emissiveFactor": [
        0,
        0,
        0
      ],
      "extensions": {
        "KHR_materials_unlit": {}
      },
      "name": "Material",
      "pbrMetallicRoughness": {
        "baseColorFactor": [
          1,
          1,
          1,
          1
        ],
        "baseColorTexture": {
          "index": 0,
          "texCoord": 0
        },
        "metallicFactor": 0,
        "roughnessFactor": 1
      }
    }
  ],
  "meshes": [
    {
      "name": "HeadStrapsHandsPants.001_Material_0",
      "primitives": [
        {
          "attributes": {
            "NORMAL": 1,
            "POSITION": 0,
            "TEXCOORD_0": 2
          },
          "indices": 3,
          "material": 0,
          "mode": 4
        }
      ]
    }
  ],
  "nodes": [
    {
      "children": [
        1
      ],
      "name": "RootNode (gltf orientation matrix)",
      "rotation": [
        -0.70710678118654746,
        -0,
        -0,
        0.70710678118654757
      ]
    },
    {
      "children": [
        2
      ],
      "name": "RootNode (model correction matrix)"
    },
    {
      "children": [
        3
      ],
      "matrix": [
        1,
        0,
        0,
        0,
        0,
        0,
        1,
        0,
        0,
        -1,
        0,
        0,
        0,
        0,
        0,
        1
      ],
      "name": "96e61a3f66864d058a9628b723f58ef5.fbx"
    },
    {
      "children": [
        4
      ],
      "name": "RootNode"
    },
    {
      "children": [
        5
      ],
      "matrix": [
        100.00001525878906,
        0,
        0,
        0,
        0,
        -1.6292070425155422e-05,
        -100.00001525878774,
        0,
        0,
        100.00001525878774,
        -1.6292070425155422e-05,
        0,
        0,
        0.00019073486328125,
        0,
        1
      ],
      "name": "HeadStrapsHandsPants.001"
    },
    {
      "mesh": 0,
      "name": "HeadStrapsHandsPants.001_Material_0"
    }
  ],
  "samplers": [
    {
      "magFilter": 9729,
      "minFilter": 9987,
      "wrapS": 10497,
      "wrapT": 10497
    }
  ],
  "scene": 0,
  "scenes": [
    {
      "name": "OSG_Scene",
      "nodes": [
        0
      ]
    }
  ],
  "textures": [
    {
      "sampler": 0,
      "source": 0
    }
  ]
}

